<?xml version="1.0" encoding="UTF-8"?>
<svg id="Layer_1" data-name="Layer 1" xmlns="http://www.w3.org/2000/svg" xmlns:xlink="http://www.w3.org/1999/xlink" viewBox="0 0 314.05 218.36">
  <defs>
    <style>
      .cls-1 {
        clip-path: url(#clippath);
      }

      .cls-2 {
        fill: none;
      }

      .cls-3 {
        fill: #8a1e41;
      }
    </style>
    <clipPath id="clippath">
      <rect class="cls-2" width="314.05" height="218.36"/>
    </clipPath>
  </defs>
  <g class="cls-1">
    <g>
      <path class="cls-3" d="M10.36,139.61c2.06,0,3.73-1.71,3.73-3.82s-1.64-3.9-3.73-3.9-3.73,1.71-3.73,3.9,1.67,3.82,3.73,3.82m24.01,35.67c-2.09,0-3.73,1.71-3.73,3.9s1.67,3.82,3.73,3.82,3.73-1.71,3.73-3.82-1.64-3.9-3.73-3.9Zm9.01,0c-2.06,0-3.73,1.75-3.73,3.9s1.71,3.82,3.73,3.82,3.81-1.71,3.81-3.82-1.71-3.9-3.81-3.9Zm19.43,0c-2.02,0-3.73,1.75-3.73,3.82s1.67,3.9,3.73,3.9,3.81-1.75,3.81-3.9-1.71-3.82-3.81-3.82Zm9.53-28.54v-2.28h-11.14v14.63c-.21,2.72-.97,4.76-2.23,6.05-1.41,1.36-3.18,1.64-4.42,1.64h-8.28v-17c0-2.36,.46-3.04,2.07-3.04h1.52v-2.28h-11.14v22.32h-9.86v-17.17c0-2.36,.46-3.04,2.07-3.04h1.52v-2.28h-13.53c-10.9,0-17.95,5.07-17.95,12.93,0,3.62,1.62,6.88,4.67,9.42,2.7,2.25,6.22,3.58,9.68,3.67H57.83c2.56,0,5.25-1.3,7.36-3.56,2.29-2.35,3.56-5.62,3.56-9.21v-7.77c0-2.35,.27-3.04,2.07-3.04h1.52Zm-51,20.05h-5.99c-1.97,0-3.74-.96-5-2.73-1.35-1.78-2.06-4.12-2.06-6.75,0-4.48,2.42-6.76,4.45-7.89,1.53-.85,3.37-1.29,5.27-1.29,1.1,0,2.23,.15,3.33,.44v18.21h0Zm109.31-7.74c-.22,2.71-.97,4.74-2.24,6.04-1.06,1.09-2.67,1.71-4.4,1.71h-14.57c-2.01-.31-3.45-1.31-4.42-3.06-.96-1.73-1.46-4.09-1.46-6.83,0-6.07,2.4-9.14,7.14-9.14,4,0,5.98,1.62,6.24,5.1l.05,.67h2.42v-.72c0-4.07,0-5.76-1.61-7.22-1.39-1.33-4.01-1.95-8.25-1.95-3.99,0-7.41,1.34-9.89,3.88-2.35,2.32-3.65,5.65-3.65,9.38,0,4.04,1.45,7.48,4.12,9.89h-16.67v-17.25c0-2.32,.45-2.96,2.07-2.96h1.52v-2.36h-11.05v25.47c0,2.01-.25,3.74-.77,5.26-.8,2.17-2.14,3.8-4.14,5-.44,.3-.56,.63-.59,.86-.02,.21,.03,.41,.15,.57,.22,.36,.61,.45,.98,.45,.25,0,.49-.04,.68-.08,1.31-.34,4.05-1.03,6.45-2.79,2.88-2.11,4.43-5.01,4.61-8.64h43.92c3.01,0,5.7-1.18,7.78-3.4,2.05-2.19,3.14-5.28,3.14-8.94v-19.98c0-2.05,.27-2.96,2.89-2.96h.71v-2.37h-11.14v26.36h-.02Zm13.4,11.3h7.54v-32.32c0-2.16,.25-3.04,2.81-3.04h.71v-2.19l-11.05-.1v37.65h0Zm125.74-30.96c2.1,0,3.81-1.71,3.81-3.82s-1.71-3.9-3.81-3.9-3.73,1.75-3.73,3.9,1.71,3.82,3.73,3.82Zm-34.56,0c2.1,0,3.81-1.75,3.81-3.9s-1.71-3.82-3.81-3.82-3.73,1.75-3.73,3.82,1.67,3.9,3.73,3.9Zm-27.94,35.67c-2.02,0-3.73,1.75-3.73,3.82s1.67,3.9,3.73,3.9,3.81-1.75,3.81-3.9-1.71-3.82-3.81-3.82Zm-23.28-35.67c2.1,0,3.81-1.71,3.81-3.82s-1.71-3.9-3.81-3.9-3.73,1.75-3.73,3.9,1.71,3.82,3.73,3.82Zm-9.01,0c2.06,0,3.73-1.71,3.73-3.82s-1.64-3.9-3.73-3.9-3.73,1.71-3.73,3.9,1.67,3.82,3.73,3.82Zm127.01-6.95v37.65h7.54v-32.32c0-2.16,.25-3.04,2.81-3.04h.71v-2.19l-11.05-.1h-.01Zm-13.4,26.36c-.22,2.71-.97,4.74-2.24,6.04-1.06,1.09-2.67,1.71-4.4,1.71h-8.36v-17c0-2.36,.46-3.04,2.07-3.04h1.52v-2.28h-11.14v22.32h-10.03c-.6-.89-.99-1.43-1.91-2.38l-2.04-2.09c-.63-.64-1.45-1.49-2.48-2.56-1.78-1.85-4.2-4.36-7.41-7.64l-10.06-10.21-7.77,8.05,1.57,1.61,1.08-1.11c.49-.52,.92-.78,1.33-.78h0c.55,0,1.19,.42,2.14,1.39l15.53,15.73h-34.91v-17c0-2.36,.46-3.04,2.07-3.04h1.52v-2.28h-11.14v22.32h-9.86v-17.17c0-2.36,.46-3.04,2.07-3.04h1.52v-2.28h-13.53c-10.9,0-17.95,5.07-17.95,12.93,0,3.62,1.62,6.88,4.67,9.42,2.7,2.25,6.22,3.59,9.68,3.67h69.23l.74,.75,.35,.41c.96,1.12,2.05,2.4,2.81,4.02,.92,1.96,1.09,4.13,.54,6.4-.05,.16-.2,.63,.07,1.02,.12,.17,.3,.29,.51,.33,.08,.02,.16,.04,.25,.04,.34,0,.75-.22,1.19-.97,.52-.91,1.59-2.79,2.12-5.04,.52-2.24,.43-4.68-.26-6.97h27.51c3.01,0,5.7-1.18,7.78-3.4,2.05-2.19,3.14-5.28,3.14-8.94v-19.98c0-2.05,.27-2.95,2.89-2.95h.71v-2.37h-11.14v26.36h0Zm-102.44,7.75h-5.99c-1.97,0-3.74-.96-5-2.73-1.35-1.78-2.06-4.12-2.06-6.75,0-4.48,2.42-6.76,4.45-7.89,1.53-.85,3.37-1.29,5.27-1.29,1.1,0,2.23,.15,3.33,.44v18.21h0ZM19.37,139.61c2.1,0,3.81-1.71,3.81-3.82s-1.71-3.9-3.81-3.9-3.73,1.75-3.73,3.9,1.71,3.82,3.73,3.82Z"/>
      <path class="cls-3" d="M158.05,30.47c.26-.03,.46-.26,.46-.53v-.93c0-.71-.54-1.22-1.25-1.22-.07,0-.15,0-.22,.01-.82,.13-1.48,.88-1.48,1.66v.77c0,.33,.29,.58,.61,.53,.63-.11,1.25-.2,1.88-.28"/>
      <path class="cls-3" d="M156.28,32.31c.6-.19,1.2-.38,1.8-.55,.23-.06,.39-.27,.39-.52v-.99c0-.63-.44-1.06-1.03-1.06-.13,0-.27,.02-.42,.07-.79,.24-1.43,1.1-1.43,1.87v.66c0,.37,.35,.62,.69,.51"/>
      <path class="cls-3" d="M157.98,30.14c.3,0,.54-.23,.54-.53v-.86c0-.39-.17-.74-.44-1s-.64-.43-1.05-.43c-.81,0-1.48,.65-1.48,1.43v.86c0,.3,.24,.54,.54,.53,.63-.01,1.27-.01,1.9,0"/>
      <path class="cls-3" d="M158.4,33.51v-1.05c0-.57-.34-.91-.81-.91-.18,0-.37,.04-.57,.14-.76,.37-1.36,1.32-1.36,2.1v1.4c.8-.42,1.62-.82,2.43-1.19,.19-.09,.31-.28,.31-.49"/>
      <path class="cls-3" d="M199.26,12.05l-5.29-10.95-5.27,10.95-5.28-10.95-5.28,10.95-5.28-10.95-5.27,10.95-5.29-10.95-5.27,10.95-5.28-10.95-5.28,10.95-5.28-10.95-5.27,10.95-5.28-10.95-5.28,10.95-5.27-10.95-5.29,10.95-5.27-10.95v-.1h0V113.72h94.99V1.12l-5.26,10.93h0Zm-49.44,60.53c0,.06-.03,.11-.12,.42-.5-1.73-1.62-2.7-2.85-3.53-4.09-2.74-5.05-6.75-4.42-11.39,.21-1.55,.89-2.92,2.11-3.93,1.45-1.21,3.38-1.26,4.8-.1,.24,.2,.47,.59,.47,.89,.02,5.88,0,11.76,0,17.64h0Zm26.66,36.63v-2.31h-3.35v-2.26h-2.71c-.05-.82-.09-1.54-.14-2.33h-2.25v-2.19c-.69-.04-1.28-.07-1.88-.11-.05-.88-.1-1.68-.14-2.49,3.48-1.97,5.27-4.37,5.97-7.9,.25-1.24,.29-2.34-.93-3.12-.4-.25-.7-.67-1.02-1.03-4.17-4.72-6.64-12.69-2.42-20.08,2.05-3.6,4.88-6.32,8.94-7.47,.39-.11,.78-.18,1.33-.3-4.38-3.46-9.1-4.32-14.37-2.91,0-1.26-.04-2.42,0-3.57,.06-1.47-.57-2.56-1.76-3.28-.87-.53-1.81-.94-2.72-1.39-.99-.49-1.24-1.39-.63-2.29,.56-.82,.57-1.9-.02-2.65-.22-.27-.52-.48-.76-.69,.85-1.43,.72-2.05-.52-2.92,.78-1.34,.02-2.5-.43-3.98-.51,1.47-1.19,2.64-.52,3.88-.34,.42-.83,.76-.88,1.16-.08,.6,.14,1.25,.24,1.96-1.14,1-1.37,2.11-.58,3.25,.58,.85,.36,1.76-.57,2.23-.56,.29-1.15,.51-1.72,.78-1.78,.86-3.03,2.09-2.86,4.3,0,.08-.06,.16-.12,.27-.53-.1-1.06-.2-1.59-.29-4.19-.69-6.8,1.05-7.68,5.29-.29,1.38-.33,2.87-.2,4.28,.39,4.11,2.12,7.75,4.24,11.19,.85,1.39,1.43,2.85,1.49,4.46,.14,3.5-.19,6.87-3.14,9.31-.37,.31-.67,.71-1.04,1.01-.48,.38-.61,.84-.55,1.44,.39,3.67,2.04,6.54,5.14,8.48,0,0,.03,.02,.04,.02v3.06c-.48,.03-.99,.05-1.59,.08v2.23h-2.31v2.33h-2.8v2.26h-3.33c0,.54-.04,.97,0,1.39,.09,.74-.21,.96-.91,.93-.35-.02-1.71-.02-3.36-.03l2.35-80.04,.74,1.75,.7-2.88c.06-.26,.29-.41,.51-.41,.16,0,.32,.07,.43,.23,.24,.35,.76,.28,.92-.11l.82-2.1c.14-.36,.59-.45,.86-.18l.61,.62c.26,.27,.71,.18,.86-.17l1.11-2.61c.14-.34,.56-.43,.83-.19l1.17,1.06c.26,.23,.66,.16,.82-.15l1.34-2.57c.16-.3,.55-.38,.8-.16l1.99,1.7c.24,.21,.61,.15,.78-.12l1.58-2.51c.17-.27,.52-.33,.77-.14l2.29,1.81c.24,.19,.59,.13,.76-.12l1.46-2.16c.21-.31,.66-.31,.87,0l1.46,2.16c.17,.25,.52,.31,.76,.12l2.29-1.81c.25-.19,.6-.13,.77,.14l1.58,2.51c.17,.27,.54,.33,.78,.12l1.99-1.7c.26-.22,.65-.14,.8,.16l1.34,2.57c.16,.31,.56,.38,.82,.15l1.17-1.06c.27-.25,.69-.15,.83,.19l1.11,2.61c.15,.35,.59,.43,.86,.17l.61-.62c.27-.27,.72-.18,.86,.18l.82,2.1c.16,.4,.68,.46,.92,.11,.26-.38,.83-.27,.94,.18l.7,2.88,.74-1.75,2.35,80.03h-5.46Z"/>
      <path class="cls-3" d="M157.89,30.76c.32,.05,.61-.19,.61-.53v-.77c0-.39-.16-.77-.43-1.07-.27-.3-.64-.51-1.05-.58-.82-.12-1.48,.43-1.48,1.21v.93c0,.27,.2,.5,.46,.53,.63,.08,1.26,.18,1.88,.28"/>
      <path class="cls-3" d="M158.4,35.19v-1.4c0-.78-.61-1.73-1.36-2.1-.76-.36-1.38,0-1.38,.77v1.05c0,.21,.12,.4,.31,.49,.82,.37,1.63,.77,2.43,1.19"/>
      <path class="cls-3" d="M157.77,32.31c.34,.11,.69-.14,.69-.51v-.66c0-.39-.16-.8-.42-1.14s-.62-.61-1.02-.73c-.79-.24-1.45,.21-1.45,.99v.99c0,.25,.16,.45,.39,.52,.6,.17,1.21,.35,1.8,.55"/>
    </g>
  </g>
</svg>