<svg width="135" height="41" viewBox="0 0 135 41" fill="none" xmlns="http://www.w3.org/2000/svg">
<g id="Frame" clip-path="url(#clip0_98_526)">
<path id="Vector" d="M66.403 16.1211C66.1188 15.8369 65.5819 15.679 64.824 15.679H63.2451V28.7685H57.4346V11.2422H66.8451C68.2504 11.2422 69.3714 11.4317 70.224 11.8264C71.0767 12.2211 71.6925 12.8369 72.0872 13.6738C72.4819 14.5106 72.6714 15.6317 72.6714 17.0369V19.9738H66.8293V17.6843C66.8451 16.9264 66.6872 16.4211 66.403 16.1211Z" fill="white"/>
<path id="Vector_2" d="M76.6661 26.4947C75.1661 24.9947 74.4082 22.8315 74.4082 19.9736C74.4082 17.1473 75.1661 14.9683 76.6661 13.4683C78.1661 11.9683 80.345 11.2104 83.1871 11.2104H90.6556V15.521H84.0398C82.8082 15.521 81.924 15.7104 81.3714 16.0894C80.8187 16.4683 80.4871 17.0368 80.3766 17.8104H90.5135V22.0578H80.3766C80.4556 22.7999 80.7871 23.3683 81.3556 23.7947C81.924 24.221 82.824 24.4262 84.0398 24.4262H90.7977V28.7526H83.1871C80.345 28.7683 78.1661 28.0104 76.6661 26.4947Z" fill="white"/>
<path id="Vector_3" d="M106.019 16.358C105.561 15.9159 104.835 15.679 103.824 15.679H100.161V28.7685H94.335V11.2422H105.182C106.888 11.2422 108.277 11.4948 109.367 12.0159C110.44 12.5369 111.23 13.3264 111.751 14.3843C112.272 15.458 112.524 16.8475 112.524 18.5685V28.7843H106.698V18.5527C106.698 17.5422 106.477 16.8159 106.019 16.358Z" fill="white"/>
<path id="Vector_4" d="M117.593 26.4948C116.093 24.9948 115.335 22.8316 115.335 19.9737C115.335 17.1474 116.093 14.9685 117.593 13.4685C119.093 11.9685 121.272 11.2106 124.114 11.2106H128.361V4.89478H134.188V28.7685H124.114C121.272 28.7685 119.109 28.0106 117.593 26.4948ZM122.377 16.5948C121.667 17.3053 121.303 18.4421 121.303 19.9737C121.303 21.5053 121.667 22.6421 122.377 23.3527C123.088 24.0632 124.209 24.4264 125.756 24.4264H128.345V15.5211H125.756C124.224 15.5211 123.088 15.8842 122.377 16.5948Z" fill="white"/>
<path id="Vector_5" d="M38.803 32.0526C37.2556 32.0526 35.9924 30.8053 35.9924 29.2737C35.9924 29.1158 36.0082 28.9579 36.024 28.8158C36.0714 28.5 36.1661 28.2158 36.324 27.9316L36.5135 27.5842C36.6556 27.3158 36.7977 27.0316 36.924 26.7474C36.9398 26.7158 36.9556 26.6842 36.9714 26.6526C37.003 26.5737 37.0503 26.4947 37.0661 26.4158C37.1135 26.3211 37.1451 26.2263 37.1924 26.1316C37.2082 26.0842 37.2398 26.0368 37.2556 25.9895C37.3188 25.8474 37.3819 25.6895 37.4293 25.5474C38.0293 23.9684 38.424 22.3105 38.5819 20.6211C38.5977 20.4316 38.6135 20.2421 38.6293 20.0526C38.6451 19.8632 38.6451 19.6737 38.6609 19.4842C38.6767 19.2947 38.6767 19.1053 38.6767 18.9316C38.6767 18.6316 38.6609 18.3316 38.6609 18.0158C38.6451 17.5737 38.5977 17.1474 38.5503 16.7211C38.5345 16.6263 38.5188 16.5158 38.5188 16.4211C38.503 16.3737 38.503 16.2947 38.4872 16.2474C38.4714 16.1053 38.4398 15.9632 38.424 15.8211C38.3767 15.5369 38.3293 15.2526 38.2503 14.9684C38.2188 14.8263 38.1872 14.6842 38.1556 14.5421C38.0451 14.1158 37.9345 13.6895 37.7924 13.2632C37.7135 12.9947 37.6188 12.7421 37.524 12.4737C37.4767 12.3316 37.4293 12.2053 37.3661 12.0632C37.2398 11.7632 37.1293 11.479 36.9872 11.179C36.9714 11.1632 36.9714 11.1632 36.9714 11.1474C36.1819 9.42633 35.124 7.83159 33.8609 6.44212C32.503 4.94212 30.924 3.67896 29.1556 2.66843C28.3977 2.24212 27.624 1.86317 26.803 1.54738C26.6767 1.5158 26.5345 1.45264 26.4082 1.40528C26.1398 1.31054 25.8556 1.20001 25.5872 1.12106C25.4451 1.0737 25.303 1.04212 25.1767 0.994749C25.0345 0.94738 24.8924 0.915802 24.7661 0.868433C24.403 0.789486 24.0714 0.694749 23.7082 0.631591C23.5977 0.600012 23.4872 0.584223 23.3609 0.552644C23.2345 0.521065 23.124 0.505275 22.9977 0.489486C22.903 0.473696 22.8082 0.457907 22.7135 0.442117C22.6188 0.426328 22.524 0.410538 22.4293 0.394749C22.224 0.36317 22.0188 0.347381 21.8135 0.315802C21.6872 0.300012 21.5609 0.284223 21.4188 0.284223C21.2135 0.268433 21.0082 0.252644 20.803 0.236854C20.1398 0.205275 19.4609 0.205275 18.8135 0.221065C18.6714 0.236854 18.5293 0.236854 18.3714 0.252644C17.9767 0.284223 17.5977 0.315802 17.2188 0.378959C17.1398 0.394749 17.0451 0.394749 16.9661 0.410538C16.7451 0.442117 16.524 0.489486 16.303 0.521065C16.224 0.536854 16.1451 0.552644 16.0661 0.568433C15.9398 0.600012 15.8451 0.615802 15.7345 0.631591C15.5924 0.66317 15.4661 0.694749 15.3398 0.726328C15.0556 0.805275 14.7556 0.884223 14.4714 0.96317C14.3293 1.01054 14.203 1.05791 14.0767 1.08949C13.9188 1.13685 13.7609 1.18422 13.603 1.24738C13.4924 1.27896 13.3819 1.31054 13.2714 1.35791C13.1293 1.40528 12.9714 1.46843 12.8293 1.53159C8.99244 3.03159 5.77139 5.74738 3.63981 9.18949C3.63981 9.18949 3.63981 9.18949 3.63981 9.20527C2.06086 11.7632 1.06613 14.7158 0.892442 17.8895C0.497705 24.979 4.14507 31.279 9.73455 34.7526C9.75034 34.7684 9.78192 34.7842 9.81349 34.8C10.8872 35.4474 12.0556 35.7474 13.1767 35.7474C16.603 35.7474 19.7924 33 19.7924 29.1947C19.6977 29.1947 19.6188 29.1947 19.524 29.179C19.3503 29.179 19.1767 29.1632 19.003 29.1474C18.8293 29.1316 18.6714 29.1158 18.4977 29.1H18.4819C13.3661 28.4526 9.40297 24.1263 9.40297 18.9158C9.40297 16.0895 10.5714 13.5158 12.4503 11.6526C14.3293 9.78949 16.9345 8.63685 19.8082 8.63685C19.903 8.63685 19.9819 8.63685 20.0767 8.65264C20.124 8.65264 20.1714 8.65264 20.203 8.66843C20.3451 8.68422 20.4714 8.68422 20.5977 8.68422C20.8661 8.70001 21.1188 8.73159 21.3714 8.77896C21.4503 8.79475 21.5451 8.81054 21.624 8.82633C21.6398 8.82633 21.6398 8.82633 21.6398 8.82633C21.7188 8.84212 21.7977 8.85791 21.8767 8.8737C22.0503 8.90527 22.2082 8.95264 22.3819 8.98422C22.5556 9.03159 22.7135 9.07896 22.8714 9.12633C22.9503 9.14212 23.0293 9.1737 23.1082 9.20527C23.1714 9.22106 23.2188 9.23685 23.2819 9.25264C23.3451 9.26843 23.3767 9.28422 23.4398 9.30001C23.4556 9.3158 23.4714 9.3158 23.4714 9.3158C23.5345 9.34738 23.5977 9.36317 23.6609 9.39475C24.4188 9.69475 25.1293 10.0895 25.7767 10.5474C25.8398 10.5947 25.9188 10.6421 25.9819 10.6895C26.203 10.8474 26.3924 11.0053 26.5977 11.179C26.6609 11.2263 26.7082 11.2737 26.7556 11.3211C26.8819 11.4316 26.9924 11.5421 27.1188 11.6526C27.1819 11.7 27.2451 11.779 27.2924 11.8263C27.403 11.9526 27.5135 12.0632 27.624 12.1895C27.6398 12.2053 27.6556 12.2369 27.6872 12.2526C27.7188 12.2842 27.7503 12.3158 27.7661 12.3474C27.8451 12.4421 27.9398 12.5526 28.0188 12.6474C28.0819 12.7263 28.1451 12.7895 28.1924 12.8684C28.2714 12.9632 28.3345 13.0579 28.3977 13.1684C28.4451 13.2316 28.4924 13.3105 28.5398 13.3737C28.5872 13.4526 28.6345 13.5316 28.6819 13.6105C28.7135 13.6579 28.7451 13.7053 28.7609 13.7526C28.824 13.8632 28.8872 13.9737 28.9503 14.0842C29.0135 14.2105 29.0767 14.3369 29.1398 14.4632C29.2188 14.6053 29.2819 14.7632 29.3451 14.9053C29.4082 15.0316 29.4556 15.1579 29.503 15.3C29.5345 15.379 29.5661 15.4421 29.5819 15.5053C29.5977 15.5526 29.6135 15.6158 29.6451 15.6632C29.803 16.1211 29.9293 16.5947 30.0082 17.0842C30.024 17.1632 30.0398 17.2421 30.0556 17.3369C30.0872 17.5105 30.103 17.6684 30.1188 17.8579C30.1345 17.9369 30.1345 18 30.1345 18.079C30.1503 18.3474 30.1661 18.6316 30.1661 18.9158C30.1661 19.0263 30.1661 19.1211 30.1503 19.2316C30.1345 19.4211 30.1345 19.6105 30.1188 19.7842C30.103 19.879 30.103 19.9895 30.0872 20.1C30.0714 20.179 30.0714 20.2737 30.0556 20.3526C29.8977 21.5053 29.5345 22.6105 28.9819 23.6526L28.8398 23.9053C28.8082 23.9842 28.7609 24.0474 28.7135 24.1263C27.8924 25.7053 27.4503 27.4737 27.4503 29.2737C27.4503 35.4474 32.5345 40.4684 38.7714 40.4684C45.024 40.4684 50.0924 35.4474 50.0924 29.2737H41.5819C41.6135 30.8211 40.3503 32.0526 38.803 32.0526Z" fill="white"/>
<path id="Vector_6" d="M50.125 4.42105V0H41.5986V28.7684H50.125V12.8368H56.2197V4.42105H50.125Z" fill="white"/>
</g>
<defs>
<clipPath id="clip0_98_526">
<rect width="133.311" height="40.4526" fill="white" transform="translate(0.861328)"/>
</clipPath>
</defs>
</svg>
